<mxfile host="app.diagrams.net" agent="Mozilla/5.0 (Windows NT 10.0; Win64; x64) AppleWebKit/537.36 (KHTML, like Gecko) Chrome/129.0.0.0 Safari/537.36" version="24.8.0">
  <diagram name="Página-1" id="mt8v9FVFiJk4aQlgQH5L">
    <mxGraphModel dx="1956" dy="1022" grid="1" gridSize="10" guides="1" tooltips="1" connect="1" arrows="1" fold="1" page="1" pageScale="1" pageWidth="827" pageHeight="1169" math="0" shadow="0">
      <root>
        <mxCell id="0" />
        <mxCell id="1" parent="0" />
        <mxCell id="30vycNhrkMzqPdWhLKba-74" value="Gerente" style="shape=umlActor;verticalLabelPosition=bottom;verticalAlign=top;html=1;outlineConnect=0;" vertex="1" parent="1">
          <mxGeometry x="40" y="400" width="40" height="80" as="geometry" />
        </mxCell>
        <mxCell id="30vycNhrkMzqPdWhLKba-75" value="Gerenciar aluno" style="ellipse;whiteSpace=wrap;html=1;" vertex="1" parent="1">
          <mxGeometry x="80" y="120" width="120" height="80" as="geometry" />
        </mxCell>
        <mxCell id="30vycNhrkMzqPdWhLKba-81" value="Cadastrar aluno" style="ellipse;whiteSpace=wrap;html=1;" vertex="1" parent="1">
          <mxGeometry x="240" y="120" width="120" height="80" as="geometry" />
        </mxCell>
        <mxCell id="30vycNhrkMzqPdWhLKba-82" value="Exibir aluno" style="ellipse;whiteSpace=wrap;html=1;" vertex="1" parent="1">
          <mxGeometry x="370" y="120" width="120" height="80" as="geometry" />
        </mxCell>
        <mxCell id="30vycNhrkMzqPdWhLKba-83" value="Excluir aluno" style="ellipse;whiteSpace=wrap;html=1;" vertex="1" parent="1">
          <mxGeometry x="500" y="120" width="120" height="80" as="geometry" />
        </mxCell>
        <mxCell id="30vycNhrkMzqPdWhLKba-84" value="Buscar aluno" style="ellipse;whiteSpace=wrap;html=1;" vertex="1" parent="1">
          <mxGeometry x="630" y="120" width="120" height="80" as="geometry" />
        </mxCell>
        <mxCell id="30vycNhrkMzqPdWhLKba-85" value="Gerenciar pagamento" style="ellipse;whiteSpace=wrap;html=1;" vertex="1" parent="1">
          <mxGeometry x="80" y="250" width="120" height="80" as="geometry" />
        </mxCell>
        <mxCell id="30vycNhrkMzqPdWhLKba-86" value="Registrar pagamento" style="ellipse;whiteSpace=wrap;html=1;" vertex="1" parent="1">
          <mxGeometry x="240" y="250" width="120" height="80" as="geometry" />
        </mxCell>
        <mxCell id="30vycNhrkMzqPdWhLKba-87" value="Buscar pagamento" style="ellipse;whiteSpace=wrap;html=1;" vertex="1" parent="1">
          <mxGeometry x="370" y="250" width="120" height="80" as="geometry" />
        </mxCell>
        <mxCell id="30vycNhrkMzqPdWhLKba-88" value="Exportar pagamento" style="ellipse;whiteSpace=wrap;html=1;" vertex="1" parent="1">
          <mxGeometry x="500" y="250" width="120" height="80" as="geometry" />
        </mxCell>
        <mxCell id="30vycNhrkMzqPdWhLKba-97" value="Alterar aluno" style="ellipse;whiteSpace=wrap;html=1;" vertex="1" parent="1">
          <mxGeometry x="370" width="120" height="80" as="geometry" />
        </mxCell>
        <mxCell id="30vycNhrkMzqPdWhLKba-104" value="Gerenciar funcionário" style="ellipse;whiteSpace=wrap;html=1;" vertex="1" parent="1">
          <mxGeometry x="120" y="420" width="120" height="80" as="geometry" />
        </mxCell>
        <mxCell id="30vycNhrkMzqPdWhLKba-105" value="Cadastrar funcionário&lt;div&gt;/ usuário&lt;/div&gt;" style="ellipse;whiteSpace=wrap;html=1;" vertex="1" parent="1">
          <mxGeometry x="280" y="420" width="120" height="80" as="geometry" />
        </mxCell>
        <mxCell id="30vycNhrkMzqPdWhLKba-106" value="Exibir funcionário" style="ellipse;whiteSpace=wrap;html=1;" vertex="1" parent="1">
          <mxGeometry x="414" y="420" width="120" height="80" as="geometry" />
        </mxCell>
        <mxCell id="30vycNhrkMzqPdWhLKba-109" value="Excluir funcionário&lt;div&gt;/ usuário&lt;/div&gt;" style="ellipse;whiteSpace=wrap;html=1;" vertex="1" parent="1">
          <mxGeometry x="540" y="420" width="120" height="80" as="geometry" />
        </mxCell>
        <mxCell id="30vycNhrkMzqPdWhLKba-110" value="Alterar funcionário&lt;div&gt;/ usuário&lt;/div&gt;" style="ellipse;whiteSpace=wrap;html=1;" vertex="1" parent="1">
          <mxGeometry x="414" y="544.5" width="120" height="80" as="geometry" />
        </mxCell>
        <mxCell id="30vycNhrkMzqPdWhLKba-111" value="Buscar funcionário" style="ellipse;whiteSpace=wrap;html=1;" vertex="1" parent="1">
          <mxGeometry x="670" y="420" width="120" height="80" as="geometry" />
        </mxCell>
        <mxCell id="30vycNhrkMzqPdWhLKba-112" value="Gerenciar plano&lt;div&gt;/ mensalidade&lt;/div&gt;" style="ellipse;whiteSpace=wrap;html=1;" vertex="1" parent="1">
          <mxGeometry x="120" y="520" width="120" height="80" as="geometry" />
        </mxCell>
        <mxCell id="30vycNhrkMzqPdWhLKba-113" value="Cadastrar plano&lt;div&gt;/ mensalidade&lt;/div&gt;" style="ellipse;whiteSpace=wrap;html=1;" vertex="1" parent="1">
          <mxGeometry x="280" y="520" width="120" height="80" as="geometry" />
        </mxCell>
        <mxCell id="30vycNhrkMzqPdWhLKba-114" value="Exibir plano&lt;div&gt;/ mensalidade&lt;/div&gt;" style="ellipse;whiteSpace=wrap;html=1;" vertex="1" parent="1">
          <mxGeometry x="280" y="660" width="120" height="80" as="geometry" />
        </mxCell>
        <mxCell id="30vycNhrkMzqPdWhLKba-115" value="Excluir plano&lt;div&gt;/ mensalidade&lt;/div&gt;" style="ellipse;whiteSpace=wrap;html=1;" vertex="1" parent="1">
          <mxGeometry x="570" y="545" width="120" height="80" as="geometry" />
        </mxCell>
        <mxCell id="30vycNhrkMzqPdWhLKba-116" value="Alterar plano&lt;div&gt;/ mensalidade&lt;/div&gt;" style="ellipse;whiteSpace=wrap;html=1;" vertex="1" parent="1">
          <mxGeometry x="440" y="660" width="120" height="80" as="geometry" />
        </mxCell>
        <mxCell id="30vycNhrkMzqPdWhLKba-117" value="Buscar plano&lt;div&gt;/ mensalidade&lt;/div&gt;" style="ellipse;whiteSpace=wrap;html=1;" vertex="1" parent="1">
          <mxGeometry x="570" y="630" width="120" height="80" as="geometry" />
        </mxCell>
        <mxCell id="30vycNhrkMzqPdWhLKba-118" value="Gerenciar treino" style="ellipse;whiteSpace=wrap;html=1;" vertex="1" parent="1">
          <mxGeometry x="80" y="770" width="120" height="80" as="geometry" />
        </mxCell>
        <mxCell id="30vycNhrkMzqPdWhLKba-119" value="Cadastrar treino" style="ellipse;whiteSpace=wrap;html=1;" vertex="1" parent="1">
          <mxGeometry x="240" y="770" width="120" height="80" as="geometry" />
        </mxCell>
        <mxCell id="30vycNhrkMzqPdWhLKba-120" value="Exibir treino" style="ellipse;whiteSpace=wrap;html=1;" vertex="1" parent="1">
          <mxGeometry x="370" y="770" width="120" height="80" as="geometry" />
        </mxCell>
        <mxCell id="30vycNhrkMzqPdWhLKba-121" value="Excluir treino" style="ellipse;whiteSpace=wrap;html=1;" vertex="1" parent="1">
          <mxGeometry x="500" y="770" width="120" height="80" as="geometry" />
        </mxCell>
        <mxCell id="30vycNhrkMzqPdWhLKba-122" value="Buscar treino" style="ellipse;whiteSpace=wrap;html=1;" vertex="1" parent="1">
          <mxGeometry x="630" y="770" width="120" height="80" as="geometry" />
        </mxCell>
        <mxCell id="30vycNhrkMzqPdWhLKba-123" value="Alterar treino" style="ellipse;whiteSpace=wrap;html=1;" vertex="1" parent="1">
          <mxGeometry x="370" y="890" width="120" height="80" as="geometry" />
        </mxCell>
        <mxCell id="30vycNhrkMzqPdWhLKba-124" value="Consultar treino" style="ellipse;whiteSpace=wrap;html=1;" vertex="1" parent="1">
          <mxGeometry x="80" y="890" width="120" height="80" as="geometry" />
        </mxCell>
        <mxCell id="30vycNhrkMzqPdWhLKba-125" value="Emitir ficha de treino" style="ellipse;whiteSpace=wrap;html=1;" vertex="1" parent="1">
          <mxGeometry x="80" y="1010" width="120" height="80" as="geometry" />
        </mxCell>
        <mxCell id="30vycNhrkMzqPdWhLKba-126" value="Exportar aluno" style="ellipse;whiteSpace=wrap;html=1;" vertex="1" parent="1">
          <mxGeometry x="630" y="30" width="120" height="80" as="geometry" />
        </mxCell>
        <mxCell id="30vycNhrkMzqPdWhLKba-127" value="Exportar funcionário" style="ellipse;whiteSpace=wrap;html=1;" vertex="1" parent="1">
          <mxGeometry x="670" y="330" width="120" height="80" as="geometry" />
        </mxCell>
        <mxCell id="30vycNhrkMzqPdWhLKba-130" value="Exportar plano&lt;div&gt;/ mensalidade&lt;/div&gt;" style="ellipse;whiteSpace=wrap;html=1;" vertex="1" parent="1">
          <mxGeometry x="120" y="660" width="120" height="80" as="geometry" />
        </mxCell>
        <mxCell id="30vycNhrkMzqPdWhLKba-131" value="" style="endArrow=none;html=1;rounded=0;entryX=0;entryY=0.5;entryDx=0;entryDy=0;endFill=0;" edge="1" parent="1" target="30vycNhrkMzqPdWhLKba-75">
          <mxGeometry width="50" height="50" relative="1" as="geometry">
            <mxPoint x="50" y="380" as="sourcePoint" />
            <mxPoint x="70" y="250" as="targetPoint" />
            <Array as="points">
              <mxPoint x="50" y="160" />
            </Array>
          </mxGeometry>
        </mxCell>
        <mxCell id="30vycNhrkMzqPdWhLKba-132" value="" style="endArrow=none;html=1;rounded=0;entryX=0;entryY=0.5;entryDx=0;entryDy=0;" edge="1" parent="1" target="30vycNhrkMzqPdWhLKba-85">
          <mxGeometry width="50" height="50" relative="1" as="geometry">
            <mxPoint x="60" y="380" as="sourcePoint" />
            <mxPoint x="140" y="330" as="targetPoint" />
            <Array as="points">
              <mxPoint x="60" y="290" />
            </Array>
          </mxGeometry>
        </mxCell>
        <mxCell id="30vycNhrkMzqPdWhLKba-133" value="" style="endArrow=none;html=1;rounded=0;entryX=0;entryY=0.5;entryDx=0;entryDy=0;" edge="1" parent="1" target="30vycNhrkMzqPdWhLKba-104">
          <mxGeometry width="50" height="50" relative="1" as="geometry">
            <mxPoint x="90" y="460" as="sourcePoint" />
            <mxPoint x="160" y="330" as="targetPoint" />
          </mxGeometry>
        </mxCell>
        <mxCell id="30vycNhrkMzqPdWhLKba-134" value="" style="endArrow=none;html=1;rounded=0;entryX=0;entryY=0.5;entryDx=0;entryDy=0;" edge="1" parent="1" target="30vycNhrkMzqPdWhLKba-112">
          <mxGeometry width="50" height="50" relative="1" as="geometry">
            <mxPoint x="90" y="480" as="sourcePoint" />
            <mxPoint x="180" y="450" as="targetPoint" />
            <Array as="points">
              <mxPoint x="90" y="560" />
            </Array>
          </mxGeometry>
        </mxCell>
        <mxCell id="30vycNhrkMzqPdWhLKba-135" value="" style="endArrow=none;html=1;rounded=0;entryX=0;entryY=0.5;entryDx=0;entryDy=0;" edge="1" parent="1" target="30vycNhrkMzqPdWhLKba-118">
          <mxGeometry width="50" height="50" relative="1" as="geometry">
            <mxPoint x="60" y="500" as="sourcePoint" />
            <mxPoint x="110" y="620" as="targetPoint" />
            <Array as="points">
              <mxPoint x="60" y="810" />
            </Array>
          </mxGeometry>
        </mxCell>
        <mxCell id="30vycNhrkMzqPdWhLKba-136" value="" style="endArrow=none;html=1;rounded=0;entryX=0;entryY=0.5;entryDx=0;entryDy=0;" edge="1" parent="1" target="30vycNhrkMzqPdWhLKba-124">
          <mxGeometry width="50" height="50" relative="1" as="geometry">
            <mxPoint x="50" y="510" as="sourcePoint" />
            <mxPoint x="70" y="650" as="targetPoint" />
            <Array as="points">
              <mxPoint x="50" y="930" />
            </Array>
          </mxGeometry>
        </mxCell>
        <mxCell id="30vycNhrkMzqPdWhLKba-137" value="" style="endArrow=classic;html=1;rounded=0;exitX=1;exitY=0.5;exitDx=0;exitDy=0;entryX=0;entryY=0.5;entryDx=0;entryDy=0;dashed=1;" edge="1" parent="1" source="30vycNhrkMzqPdWhLKba-75" target="30vycNhrkMzqPdWhLKba-81">
          <mxGeometry width="50" height="50" relative="1" as="geometry">
            <mxPoint x="230" y="110" as="sourcePoint" />
            <mxPoint x="280" y="60" as="targetPoint" />
          </mxGeometry>
        </mxCell>
        <mxCell id="30vycNhrkMzqPdWhLKba-138" value="" style="endArrow=classic;html=1;rounded=0;exitX=1;exitY=1;exitDx=0;exitDy=0;entryX=0.5;entryY=1;entryDx=0;entryDy=0;dashed=1;" edge="1" parent="1" source="30vycNhrkMzqPdWhLKba-75" target="30vycNhrkMzqPdWhLKba-82">
          <mxGeometry width="50" height="50" relative="1" as="geometry">
            <mxPoint x="220" y="250" as="sourcePoint" />
            <mxPoint x="270" y="200" as="targetPoint" />
            <Array as="points">
              <mxPoint x="182" y="210" />
              <mxPoint x="430" y="210" />
            </Array>
          </mxGeometry>
        </mxCell>
        <mxCell id="30vycNhrkMzqPdWhLKba-140" value="&amp;lt;&amp;lt;include&amp;gt;&amp;gt;" style="edgeLabel;html=1;align=center;verticalAlign=middle;resizable=0;points=[];" vertex="1" connectable="0" parent="30vycNhrkMzqPdWhLKba-138">
          <mxGeometry x="-0.0754" y="1" relative="1" as="geometry">
            <mxPoint as="offset" />
          </mxGeometry>
        </mxCell>
        <mxCell id="30vycNhrkMzqPdWhLKba-139" value="" style="endArrow=classic;html=1;rounded=0;exitX=0.666;exitY=0.971;exitDx=0;exitDy=0;exitPerimeter=0;entryX=0.5;entryY=1;entryDx=0;entryDy=0;dashed=1;" edge="1" parent="1" source="30vycNhrkMzqPdWhLKba-75" target="30vycNhrkMzqPdWhLKba-83">
          <mxGeometry width="50" height="50" relative="1" as="geometry">
            <mxPoint x="250" y="290" as="sourcePoint" />
            <mxPoint x="300" y="240" as="targetPoint" />
            <Array as="points">
              <mxPoint x="160" y="220" />
              <mxPoint x="560" y="220" />
            </Array>
          </mxGeometry>
        </mxCell>
        <mxCell id="30vycNhrkMzqPdWhLKba-141" value="&amp;lt;&amp;lt;include&amp;gt;&amp;gt;" style="edgeLabel;html=1;align=center;verticalAlign=middle;resizable=0;points=[];" vertex="1" connectable="0" parent="30vycNhrkMzqPdWhLKba-139">
          <mxGeometry x="-0.0599" relative="1" as="geometry">
            <mxPoint as="offset" />
          </mxGeometry>
        </mxCell>
        <mxCell id="30vycNhrkMzqPdWhLKba-142" value="" style="endArrow=classic;html=1;rounded=0;exitX=0.5;exitY=1;exitDx=0;exitDy=0;entryX=0.5;entryY=1;entryDx=0;entryDy=0;dashed=1;" edge="1" parent="1" source="30vycNhrkMzqPdWhLKba-75" target="30vycNhrkMzqPdWhLKba-84">
          <mxGeometry width="50" height="50" relative="1" as="geometry">
            <mxPoint x="220" y="270" as="sourcePoint" />
            <mxPoint x="270" y="220" as="targetPoint" />
            <Array as="points">
              <mxPoint x="140" y="230" />
              <mxPoint x="690" y="230" />
            </Array>
          </mxGeometry>
        </mxCell>
        <mxCell id="30vycNhrkMzqPdWhLKba-143" value="&amp;lt;&amp;lt;include&amp;gt;&amp;gt;" style="edgeLabel;html=1;align=center;verticalAlign=middle;resizable=0;points=[];" vertex="1" connectable="0" parent="30vycNhrkMzqPdWhLKba-142">
          <mxGeometry x="-0.0375" y="-1" relative="1" as="geometry">
            <mxPoint as="offset" />
          </mxGeometry>
        </mxCell>
        <mxCell id="30vycNhrkMzqPdWhLKba-144" value="" style="endArrow=classic;html=1;rounded=0;exitX=0.333;exitY=0.974;exitDx=0;exitDy=0;exitPerimeter=0;entryX=1;entryY=0.5;entryDx=0;entryDy=0;dashed=1;" edge="1" parent="1" source="30vycNhrkMzqPdWhLKba-75" target="30vycNhrkMzqPdWhLKba-126">
          <mxGeometry width="50" height="50" relative="1" as="geometry">
            <mxPoint x="220" y="280" as="sourcePoint" />
            <mxPoint x="820" y="240" as="targetPoint" />
            <Array as="points">
              <mxPoint x="120" y="240" />
              <mxPoint x="780" y="240" />
              <mxPoint x="780" y="70" />
            </Array>
          </mxGeometry>
        </mxCell>
        <mxCell id="30vycNhrkMzqPdWhLKba-145" value="&amp;lt;&amp;lt;include&amp;gt;&amp;gt;" style="edgeLabel;html=1;align=center;verticalAlign=middle;resizable=0;points=[];" vertex="1" connectable="0" parent="30vycNhrkMzqPdWhLKba-144">
          <mxGeometry x="-0.1285" y="1" relative="1" as="geometry">
            <mxPoint as="offset" />
          </mxGeometry>
        </mxCell>
        <mxCell id="30vycNhrkMzqPdWhLKba-146" value="" style="endArrow=classic;html=1;rounded=0;entryX=0.5;entryY=0;entryDx=0;entryDy=0;exitX=0.5;exitY=1;exitDx=0;exitDy=0;dashed=1;" edge="1" parent="1" source="30vycNhrkMzqPdWhLKba-97" target="30vycNhrkMzqPdWhLKba-82">
          <mxGeometry width="50" height="50" relative="1" as="geometry">
            <mxPoint x="260" y="100" as="sourcePoint" />
            <mxPoint x="310" y="50" as="targetPoint" />
          </mxGeometry>
        </mxCell>
        <mxCell id="30vycNhrkMzqPdWhLKba-147" value="&amp;lt;&amp;lt;include&amp;gt;&amp;gt;" style="text;html=1;align=center;verticalAlign=middle;resizable=0;points=[];autosize=1;strokeColor=none;fillColor=none;fontSize=9;" vertex="1" parent="1">
          <mxGeometry x="180" y="130" width="70" height="20" as="geometry" />
        </mxCell>
        <mxCell id="30vycNhrkMzqPdWhLKba-148" value="&amp;lt;&amp;lt;extend&amp;gt;&amp;gt;" style="text;html=1;align=center;verticalAlign=middle;resizable=0;points=[];autosize=1;strokeColor=none;fillColor=none;fontSize=11;" vertex="1" parent="1">
          <mxGeometry x="425" y="85" width="80" height="30" as="geometry" />
        </mxCell>
        <mxCell id="30vycNhrkMzqPdWhLKba-149" value="" style="endArrow=classic;html=1;rounded=0;exitX=1;exitY=0.5;exitDx=0;exitDy=0;entryX=0;entryY=0.5;entryDx=0;entryDy=0;dashed=1;" edge="1" parent="1" source="30vycNhrkMzqPdWhLKba-85" target="30vycNhrkMzqPdWhLKba-86">
          <mxGeometry width="50" height="50" relative="1" as="geometry">
            <mxPoint x="220" y="360" as="sourcePoint" />
            <mxPoint x="270" y="310" as="targetPoint" />
          </mxGeometry>
        </mxCell>
        <mxCell id="30vycNhrkMzqPdWhLKba-150" value="" style="endArrow=classic;html=1;rounded=0;exitX=0.915;exitY=0.78;exitDx=0;exitDy=0;exitPerimeter=0;entryX=0.5;entryY=1;entryDx=0;entryDy=0;dashed=1;" edge="1" parent="1" source="30vycNhrkMzqPdWhLKba-85" target="30vycNhrkMzqPdWhLKba-86">
          <mxGeometry width="50" height="50" relative="1" as="geometry">
            <mxPoint x="230" y="380" as="sourcePoint" />
            <mxPoint x="280" y="330" as="targetPoint" />
            <Array as="points">
              <mxPoint x="190" y="340" />
              <mxPoint x="300" y="340" />
            </Array>
          </mxGeometry>
        </mxCell>
        <mxCell id="30vycNhrkMzqPdWhLKba-151" value="&amp;lt;&amp;lt;include&amp;gt;&amp;gt;" style="edgeLabel;html=1;align=center;verticalAlign=middle;resizable=0;points=[];" vertex="1" connectable="0" parent="30vycNhrkMzqPdWhLKba-150">
          <mxGeometry x="0.0334" relative="1" as="geometry">
            <mxPoint as="offset" />
          </mxGeometry>
        </mxCell>
        <mxCell id="30vycNhrkMzqPdWhLKba-152" value="" style="endArrow=classic;html=1;rounded=0;exitX=0.748;exitY=0.936;exitDx=0;exitDy=0;exitPerimeter=0;entryX=0.5;entryY=1;entryDx=0;entryDy=0;dashed=1;" edge="1" parent="1" source="30vycNhrkMzqPdWhLKba-85" target="30vycNhrkMzqPdWhLKba-87">
          <mxGeometry width="50" height="50" relative="1" as="geometry">
            <mxPoint x="250" y="410" as="sourcePoint" />
            <mxPoint x="300" y="360" as="targetPoint" />
            <Array as="points">
              <mxPoint x="170" y="350" />
              <mxPoint x="430" y="350" />
            </Array>
          </mxGeometry>
        </mxCell>
        <mxCell id="30vycNhrkMzqPdWhLKba-153" value="&amp;lt;&amp;lt;include&amp;gt;&amp;gt;" style="edgeLabel;html=1;align=center;verticalAlign=middle;resizable=0;points=[];" vertex="1" connectable="0" parent="30vycNhrkMzqPdWhLKba-152">
          <mxGeometry x="0.0196" y="1" relative="1" as="geometry">
            <mxPoint as="offset" />
          </mxGeometry>
        </mxCell>
        <mxCell id="30vycNhrkMzqPdWhLKba-154" value="" style="endArrow=classic;html=1;rounded=0;exitX=0.5;exitY=1;exitDx=0;exitDy=0;entryX=0.5;entryY=1;entryDx=0;entryDy=0;dashed=1;" edge="1" parent="1" source="30vycNhrkMzqPdWhLKba-85" target="30vycNhrkMzqPdWhLKba-88">
          <mxGeometry width="50" height="50" relative="1" as="geometry">
            <mxPoint x="130" y="400" as="sourcePoint" />
            <mxPoint x="180" y="350" as="targetPoint" />
            <Array as="points">
              <mxPoint x="140" y="360" />
              <mxPoint x="560" y="360" />
            </Array>
          </mxGeometry>
        </mxCell>
        <mxCell id="30vycNhrkMzqPdWhLKba-155" value="&amp;lt;&amp;lt;include&amp;gt;&amp;gt;" style="edgeLabel;html=1;align=center;verticalAlign=middle;resizable=0;points=[];" vertex="1" connectable="0" parent="30vycNhrkMzqPdWhLKba-154">
          <mxGeometry x="0.0506" y="1" relative="1" as="geometry">
            <mxPoint as="offset" />
          </mxGeometry>
        </mxCell>
        <mxCell id="30vycNhrkMzqPdWhLKba-157" value="" style="endArrow=classic;html=1;rounded=0;exitX=1;exitY=0.5;exitDx=0;exitDy=0;entryX=0;entryY=0.5;entryDx=0;entryDy=0;dashed=1;" edge="1" parent="1" source="30vycNhrkMzqPdWhLKba-104" target="30vycNhrkMzqPdWhLKba-105">
          <mxGeometry width="50" height="50" relative="1" as="geometry">
            <mxPoint x="260" y="560" as="sourcePoint" />
            <mxPoint x="310" y="510" as="targetPoint" />
          </mxGeometry>
        </mxCell>
        <mxCell id="30vycNhrkMzqPdWhLKba-158" value="&amp;lt;&amp;lt;include&amp;gt;&amp;gt;" style="text;html=1;align=center;verticalAlign=middle;resizable=0;points=[];autosize=1;strokeColor=none;fillColor=none;fontSize=9;" vertex="1" parent="1">
          <mxGeometry x="180" y="260" width="70" height="20" as="geometry" />
        </mxCell>
        <mxCell id="30vycNhrkMzqPdWhLKba-159" value="&amp;lt;&amp;lt;include&amp;gt;&amp;gt;" style="text;html=1;align=center;verticalAlign=middle;resizable=0;points=[];autosize=1;strokeColor=none;fillColor=none;fontSize=9;" vertex="1" parent="1">
          <mxGeometry x="220" y="430" width="70" height="20" as="geometry" />
        </mxCell>
        <mxCell id="30vycNhrkMzqPdWhLKba-160" value="" style="endArrow=classic;html=1;rounded=0;exitX=0.917;exitY=0.78;exitDx=0;exitDy=0;exitPerimeter=0;entryX=0.5;entryY=1;entryDx=0;entryDy=0;dashed=1;" edge="1" parent="1" source="30vycNhrkMzqPdWhLKba-104" target="30vycNhrkMzqPdWhLKba-105">
          <mxGeometry width="50" height="50" relative="1" as="geometry">
            <mxPoint x="270" y="540" as="sourcePoint" />
            <mxPoint x="320" y="490" as="targetPoint" />
            <Array as="points">
              <mxPoint x="230" y="510" />
              <mxPoint x="340" y="510" />
            </Array>
          </mxGeometry>
        </mxCell>
        <mxCell id="30vycNhrkMzqPdWhLKba-161" value="&amp;lt;&amp;lt;include&amp;gt;&amp;gt;" style="edgeLabel;html=1;align=center;verticalAlign=middle;resizable=0;points=[];" vertex="1" connectable="0" parent="30vycNhrkMzqPdWhLKba-160">
          <mxGeometry x="0.007" y="-1" relative="1" as="geometry">
            <mxPoint as="offset" />
          </mxGeometry>
        </mxCell>
        <mxCell id="30vycNhrkMzqPdWhLKba-164" value="" style="endArrow=classic;html=1;rounded=0;exitX=0.83;exitY=0.123;exitDx=0;exitDy=0;entryX=0.5;entryY=0;entryDx=0;entryDy=0;exitPerimeter=0;dashed=1;" edge="1" parent="1" source="30vycNhrkMzqPdWhLKba-104" target="30vycNhrkMzqPdWhLKba-106">
          <mxGeometry width="50" height="50" relative="1" as="geometry">
            <mxPoint x="280" y="510" as="sourcePoint" />
            <mxPoint x="330" y="460" as="targetPoint" />
            <Array as="points">
              <mxPoint x="220" y="410" />
              <mxPoint x="474" y="410" />
            </Array>
          </mxGeometry>
        </mxCell>
        <mxCell id="30vycNhrkMzqPdWhLKba-165" value="&amp;lt;&amp;lt;include&amp;gt;&amp;gt;" style="edgeLabel;html=1;align=center;verticalAlign=middle;resizable=0;points=[];" vertex="1" connectable="0" parent="30vycNhrkMzqPdWhLKba-164">
          <mxGeometry x="-0.0397" relative="1" as="geometry">
            <mxPoint as="offset" />
          </mxGeometry>
        </mxCell>
        <mxCell id="30vycNhrkMzqPdWhLKba-166" value="" style="endArrow=classic;html=1;rounded=0;exitX=0.667;exitY=0.028;exitDx=0;exitDy=0;exitPerimeter=0;entryX=0.5;entryY=0;entryDx=0;entryDy=0;dashed=1;" edge="1" parent="1" source="30vycNhrkMzqPdWhLKba-104" target="30vycNhrkMzqPdWhLKba-109">
          <mxGeometry width="50" height="50" relative="1" as="geometry">
            <mxPoint x="200" y="450" as="sourcePoint" />
            <mxPoint x="250" y="400" as="targetPoint" />
            <Array as="points">
              <mxPoint x="200" y="400" />
              <mxPoint x="600" y="400" />
            </Array>
          </mxGeometry>
        </mxCell>
        <mxCell id="30vycNhrkMzqPdWhLKba-167" value="&amp;lt;&amp;lt;include&amp;gt;&amp;gt;" style="edgeLabel;html=1;align=center;verticalAlign=middle;resizable=0;points=[];" vertex="1" connectable="0" parent="30vycNhrkMzqPdWhLKba-166">
          <mxGeometry x="-0.011" relative="1" as="geometry">
            <mxPoint as="offset" />
          </mxGeometry>
        </mxCell>
        <mxCell id="30vycNhrkMzqPdWhLKba-168" value="" style="endArrow=classic;html=1;rounded=0;exitX=0.5;exitY=0;exitDx=0;exitDy=0;entryX=0;entryY=0;entryDx=0;entryDy=0;dashed=1;" edge="1" parent="1" source="30vycNhrkMzqPdWhLKba-104" target="30vycNhrkMzqPdWhLKba-111">
          <mxGeometry width="50" height="50" relative="1" as="geometry">
            <mxPoint x="280" y="490" as="sourcePoint" />
            <mxPoint x="330" y="440" as="targetPoint" />
            <Array as="points">
              <mxPoint x="180" y="390" />
              <mxPoint x="640" y="390" />
              <mxPoint x="640" y="410" />
              <mxPoint x="670" y="410" />
              <mxPoint x="670" y="430" />
            </Array>
          </mxGeometry>
        </mxCell>
        <mxCell id="30vycNhrkMzqPdWhLKba-169" value="&amp;lt;&amp;lt;include&amp;gt;&amp;gt;" style="edgeLabel;html=1;align=center;verticalAlign=middle;resizable=0;points=[];" vertex="1" connectable="0" parent="30vycNhrkMzqPdWhLKba-168">
          <mxGeometry x="0.0831" relative="1" as="geometry">
            <mxPoint as="offset" />
          </mxGeometry>
        </mxCell>
        <mxCell id="30vycNhrkMzqPdWhLKba-170" value="" style="endArrow=classic;html=1;rounded=0;exitX=0.334;exitY=0.028;exitDx=0;exitDy=0;exitPerimeter=0;entryX=0.006;entryY=0.624;entryDx=0;entryDy=0;dashed=1;entryPerimeter=0;" edge="1" parent="1" source="30vycNhrkMzqPdWhLKba-104" target="30vycNhrkMzqPdWhLKba-127">
          <mxGeometry width="50" height="50" relative="1" as="geometry">
            <mxPoint x="90" y="400" as="sourcePoint" />
            <mxPoint x="140" y="350" as="targetPoint" />
            <Array as="points">
              <mxPoint x="160" y="380" />
            </Array>
          </mxGeometry>
        </mxCell>
        <mxCell id="30vycNhrkMzqPdWhLKba-171" value="&amp;lt;&amp;lt;include&amp;gt;&amp;gt;" style="edgeLabel;html=1;align=center;verticalAlign=middle;resizable=0;points=[];" vertex="1" connectable="0" parent="30vycNhrkMzqPdWhLKba-170">
          <mxGeometry x="0.4795" relative="1" as="geometry">
            <mxPoint as="offset" />
          </mxGeometry>
        </mxCell>
        <mxCell id="30vycNhrkMzqPdWhLKba-172" value="" style="endArrow=classic;html=1;rounded=0;exitX=0.5;exitY=0;exitDx=0;exitDy=0;entryX=0.5;entryY=1;entryDx=0;entryDy=0;dashed=1;" edge="1" parent="1" source="30vycNhrkMzqPdWhLKba-110" target="30vycNhrkMzqPdWhLKba-106">
          <mxGeometry width="50" height="50" relative="1" as="geometry">
            <mxPoint x="560" y="560" as="sourcePoint" />
            <mxPoint x="610" y="510" as="targetPoint" />
          </mxGeometry>
        </mxCell>
        <mxCell id="30vycNhrkMzqPdWhLKba-173" value="&amp;lt;&amp;lt;extend&amp;gt;&amp;gt;" style="text;html=1;align=center;verticalAlign=middle;resizable=0;points=[];autosize=1;strokeColor=none;fillColor=none;fontSize=11;" vertex="1" parent="1">
          <mxGeometry x="470" y="510" width="80" height="30" as="geometry" />
        </mxCell>
        <mxCell id="30vycNhrkMzqPdWhLKba-174" value="" style="endArrow=classic;html=1;rounded=0;exitX=1;exitY=0.5;exitDx=0;exitDy=0;entryX=0;entryY=0.5;entryDx=0;entryDy=0;dashed=1;" edge="1" parent="1" source="30vycNhrkMzqPdWhLKba-112" target="30vycNhrkMzqPdWhLKba-113">
          <mxGeometry width="50" height="50" relative="1" as="geometry">
            <mxPoint x="270" y="660" as="sourcePoint" />
            <mxPoint x="320" y="610" as="targetPoint" />
          </mxGeometry>
        </mxCell>
        <mxCell id="30vycNhrkMzqPdWhLKba-175" value="&amp;lt;&amp;lt;include&amp;gt;&amp;gt;" style="text;html=1;align=center;verticalAlign=middle;resizable=0;points=[];autosize=1;strokeColor=none;fillColor=none;fontSize=9;" vertex="1" parent="1">
          <mxGeometry x="220" y="530" width="70" height="20" as="geometry" />
        </mxCell>
        <mxCell id="30vycNhrkMzqPdWhLKba-176" value="" style="endArrow=classic;html=1;rounded=0;exitX=0.912;exitY=0.784;exitDx=0;exitDy=0;exitPerimeter=0;entryX=0;entryY=0.5;entryDx=0;entryDy=0;dashed=1;" edge="1" parent="1" source="30vycNhrkMzqPdWhLKba-112" target="30vycNhrkMzqPdWhLKba-115">
          <mxGeometry width="50" height="50" relative="1" as="geometry">
            <mxPoint x="230" y="610" as="sourcePoint" />
            <mxPoint x="560" y="630" as="targetPoint" />
            <Array as="points">
              <mxPoint x="230" y="630" />
              <mxPoint x="540" y="630" />
              <mxPoint x="540" y="585" />
            </Array>
          </mxGeometry>
        </mxCell>
        <mxCell id="30vycNhrkMzqPdWhLKba-177" value="&amp;lt;&amp;lt;include&amp;gt;&amp;gt;" style="edgeLabel;html=1;align=center;verticalAlign=middle;resizable=0;points=[];" vertex="1" connectable="0" parent="30vycNhrkMzqPdWhLKba-176">
          <mxGeometry x="-0.2862" y="-1" relative="1" as="geometry">
            <mxPoint as="offset" />
          </mxGeometry>
        </mxCell>
        <mxCell id="30vycNhrkMzqPdWhLKba-178" value="" style="endArrow=classic;html=1;rounded=0;exitX=0.748;exitY=0.938;exitDx=0;exitDy=0;exitPerimeter=0;entryX=0;entryY=0.5;entryDx=0;entryDy=0;dashed=1;" edge="1" parent="1" source="30vycNhrkMzqPdWhLKba-112" target="30vycNhrkMzqPdWhLKba-117">
          <mxGeometry width="50" height="50" relative="1" as="geometry">
            <mxPoint x="210" y="610" as="sourcePoint" />
            <mxPoint x="310" y="660" as="targetPoint" />
            <Array as="points">
              <mxPoint x="210" y="640" />
              <mxPoint x="550" y="640" />
              <mxPoint x="550" y="670" />
            </Array>
          </mxGeometry>
        </mxCell>
        <mxCell id="30vycNhrkMzqPdWhLKba-179" value="&amp;lt;&amp;lt;include&amp;gt;&amp;gt;" style="edgeLabel;html=1;align=center;verticalAlign=middle;resizable=0;points=[];" vertex="1" connectable="0" parent="30vycNhrkMzqPdWhLKba-178">
          <mxGeometry x="0.1338" y="1" relative="1" as="geometry">
            <mxPoint as="offset" />
          </mxGeometry>
        </mxCell>
        <mxCell id="30vycNhrkMzqPdWhLKba-180" value="" style="endArrow=classic;html=1;rounded=0;exitX=0.582;exitY=0.992;exitDx=0;exitDy=0;exitPerimeter=0;entryX=0.5;entryY=0;entryDx=0;entryDy=0;dashed=1;" edge="1" parent="1" source="30vycNhrkMzqPdWhLKba-112" target="30vycNhrkMzqPdWhLKba-114">
          <mxGeometry width="50" height="50" relative="1" as="geometry">
            <mxPoint x="250" y="710" as="sourcePoint" />
            <mxPoint x="300" y="660" as="targetPoint" />
            <Array as="points">
              <mxPoint x="190" y="650" />
              <mxPoint x="340" y="650" />
            </Array>
          </mxGeometry>
        </mxCell>
        <mxCell id="30vycNhrkMzqPdWhLKba-181" value="&amp;lt;&amp;lt;include&amp;gt;&amp;gt;" style="edgeLabel;html=1;align=center;verticalAlign=middle;resizable=0;points=[];" vertex="1" connectable="0" parent="30vycNhrkMzqPdWhLKba-180">
          <mxGeometry x="0.0962" relative="1" as="geometry">
            <mxPoint as="offset" />
          </mxGeometry>
        </mxCell>
        <mxCell id="30vycNhrkMzqPdWhLKba-182" value="" style="endArrow=classic;html=1;rounded=0;exitX=0;exitY=0.5;exitDx=0;exitDy=0;entryX=1;entryY=0.5;entryDx=0;entryDy=0;dashed=1;" edge="1" parent="1" source="30vycNhrkMzqPdWhLKba-116" target="30vycNhrkMzqPdWhLKba-114">
          <mxGeometry width="50" height="50" relative="1" as="geometry">
            <mxPoint x="420" y="760" as="sourcePoint" />
            <mxPoint x="470" y="710" as="targetPoint" />
          </mxGeometry>
        </mxCell>
        <mxCell id="30vycNhrkMzqPdWhLKba-183" value="&amp;lt;&amp;lt;extend&amp;gt;&amp;gt;" style="text;html=1;align=center;verticalAlign=middle;resizable=0;points=[];autosize=1;strokeColor=none;fillColor=none;fontSize=9;" vertex="1" parent="1">
          <mxGeometry x="380" y="670" width="70" height="20" as="geometry" />
        </mxCell>
        <mxCell id="30vycNhrkMzqPdWhLKba-184" value="" style="endArrow=classic;html=1;rounded=0;exitX=0.415;exitY=1;exitDx=0;exitDy=0;exitPerimeter=0;entryX=0.416;entryY=0.004;entryDx=0;entryDy=0;entryPerimeter=0;dashed=1;" edge="1" parent="1" source="30vycNhrkMzqPdWhLKba-112" target="30vycNhrkMzqPdWhLKba-130">
          <mxGeometry width="50" height="50" relative="1" as="geometry">
            <mxPoint x="90" y="670" as="sourcePoint" />
            <mxPoint x="140" y="620" as="targetPoint" />
          </mxGeometry>
        </mxCell>
        <mxCell id="30vycNhrkMzqPdWhLKba-185" value="&amp;lt;&amp;lt;include&amp;gt;&amp;gt;" style="text;html=1;align=center;verticalAlign=middle;resizable=0;points=[];autosize=1;strokeColor=none;fillColor=none;fontSize=11;" vertex="1" parent="1">
          <mxGeometry x="100" y="610" width="80" height="30" as="geometry" />
        </mxCell>
        <mxCell id="30vycNhrkMzqPdWhLKba-187" value="" style="endArrow=classic;html=1;rounded=0;exitX=1;exitY=0.5;exitDx=0;exitDy=0;entryX=0;entryY=0.5;entryDx=0;entryDy=0;dashed=1;" edge="1" parent="1" source="30vycNhrkMzqPdWhLKba-118" target="30vycNhrkMzqPdWhLKba-119">
          <mxGeometry width="50" height="50" relative="1" as="geometry">
            <mxPoint x="310" y="980" as="sourcePoint" />
            <mxPoint x="360" y="930" as="targetPoint" />
          </mxGeometry>
        </mxCell>
        <mxCell id="30vycNhrkMzqPdWhLKba-188" value="&amp;lt;&amp;lt;include&amp;gt;&amp;gt;" style="text;html=1;align=center;verticalAlign=middle;resizable=0;points=[];autosize=1;strokeColor=none;fillColor=none;fontSize=9;" vertex="1" parent="1">
          <mxGeometry x="180" y="780" width="70" height="20" as="geometry" />
        </mxCell>
        <mxCell id="30vycNhrkMzqPdWhLKba-189" value="" style="endArrow=classic;html=1;rounded=0;exitX=-0.004;exitY=-0.013;exitDx=0;exitDy=0;exitPerimeter=0;entryX=0.5;entryY=0;entryDx=0;entryDy=0;dashed=1;" edge="1" parent="1" source="30vycNhrkMzqPdWhLKba-188" target="30vycNhrkMzqPdWhLKba-120">
          <mxGeometry width="50" height="50" relative="1" as="geometry">
            <mxPoint x="190" y="760" as="sourcePoint" />
            <mxPoint x="290" y="850" as="targetPoint" />
            <Array as="points">
              <mxPoint x="180" y="760" />
              <mxPoint x="430" y="760" />
            </Array>
          </mxGeometry>
        </mxCell>
        <mxCell id="30vycNhrkMzqPdWhLKba-191" value="&amp;lt;&amp;lt;include&amp;gt;&amp;gt;" style="edgeLabel;html=1;align=center;verticalAlign=middle;resizable=0;points=[];" vertex="1" connectable="0" parent="30vycNhrkMzqPdWhLKba-189">
          <mxGeometry x="0.0378" relative="1" as="geometry">
            <mxPoint as="offset" />
          </mxGeometry>
        </mxCell>
        <mxCell id="30vycNhrkMzqPdWhLKba-192" value="" style="endArrow=classic;html=1;rounded=0;exitX=0.5;exitY=0;exitDx=0;exitDy=0;entryX=0.5;entryY=1;entryDx=0;entryDy=0;dashed=1;" edge="1" parent="1" source="30vycNhrkMzqPdWhLKba-123" target="30vycNhrkMzqPdWhLKba-120">
          <mxGeometry width="50" height="50" relative="1" as="geometry">
            <mxPoint x="320" y="950" as="sourcePoint" />
            <mxPoint x="370" y="900" as="targetPoint" />
          </mxGeometry>
        </mxCell>
        <mxCell id="30vycNhrkMzqPdWhLKba-193" value="&amp;lt;&amp;lt;extend&amp;gt;&amp;gt;" style="text;html=1;align=center;verticalAlign=middle;resizable=0;points=[];autosize=1;strokeColor=none;fillColor=none;fontSize=11;" vertex="1" parent="1">
          <mxGeometry x="420" y="860" width="80" height="30" as="geometry" />
        </mxCell>
        <mxCell id="30vycNhrkMzqPdWhLKba-194" value="" style="endArrow=classic;html=1;rounded=0;exitX=0.826;exitY=0.883;exitDx=0;exitDy=0;exitPerimeter=0;entryX=0.5;entryY=1;entryDx=0;entryDy=0;dashed=1;" edge="1" parent="1" source="30vycNhrkMzqPdWhLKba-118" target="30vycNhrkMzqPdWhLKba-121">
          <mxGeometry width="50" height="50" relative="1" as="geometry">
            <mxPoint x="190" y="860" as="sourcePoint" />
            <mxPoint x="340" y="890" as="targetPoint" />
            <Array as="points">
              <mxPoint x="179" y="860" />
              <mxPoint x="320" y="860" />
              <mxPoint x="320" y="990" />
              <mxPoint x="560" y="990" />
            </Array>
          </mxGeometry>
        </mxCell>
        <mxCell id="30vycNhrkMzqPdWhLKba-195" value="&amp;lt;&amp;lt;include&amp;gt;&amp;gt;" style="edgeLabel;html=1;align=center;verticalAlign=middle;resizable=0;points=[];" vertex="1" connectable="0" parent="30vycNhrkMzqPdWhLKba-194">
          <mxGeometry x="0.1736" y="2" relative="1" as="geometry">
            <mxPoint as="offset" />
          </mxGeometry>
        </mxCell>
        <mxCell id="30vycNhrkMzqPdWhLKba-196" value="" style="endArrow=classic;html=1;rounded=0;exitX=0.667;exitY=0.975;exitDx=0;exitDy=0;exitPerimeter=0;entryX=0.5;entryY=1;entryDx=0;entryDy=0;dashed=1;" edge="1" parent="1" source="30vycNhrkMzqPdWhLKba-118" target="30vycNhrkMzqPdWhLKba-122">
          <mxGeometry width="50" height="50" relative="1" as="geometry">
            <mxPoint x="260" y="960" as="sourcePoint" />
            <mxPoint x="310" y="910" as="targetPoint" />
            <Array as="points">
              <mxPoint x="160" y="880" />
              <mxPoint x="280" y="880" />
              <mxPoint x="280" y="1010" />
              <mxPoint x="690" y="1010" />
            </Array>
          </mxGeometry>
        </mxCell>
        <mxCell id="30vycNhrkMzqPdWhLKba-197" value="&amp;lt;&amp;lt;include&amp;gt;&amp;gt;" style="edgeLabel;html=1;align=center;verticalAlign=middle;resizable=0;points=[];" vertex="1" connectable="0" parent="30vycNhrkMzqPdWhLKba-196">
          <mxGeometry x="0.1361" y="-1" relative="1" as="geometry">
            <mxPoint as="offset" />
          </mxGeometry>
        </mxCell>
        <mxCell id="30vycNhrkMzqPdWhLKba-198" value="" style="endArrow=classic;html=1;rounded=0;exitX=0.5;exitY=1;exitDx=0;exitDy=0;entryX=0.5;entryY=0;entryDx=0;entryDy=0;dashed=1;" edge="1" parent="1" source="30vycNhrkMzqPdWhLKba-124" target="30vycNhrkMzqPdWhLKba-125">
          <mxGeometry width="50" height="50" relative="1" as="geometry">
            <mxPoint x="230" y="1020" as="sourcePoint" />
            <mxPoint x="280" y="970" as="targetPoint" />
          </mxGeometry>
        </mxCell>
        <mxCell id="30vycNhrkMzqPdWhLKba-199" value="&amp;lt;&amp;lt;include&amp;gt;&amp;gt;" style="text;html=1;align=center;verticalAlign=middle;resizable=0;points=[];autosize=1;strokeColor=none;fillColor=none;fontSize=11;" vertex="1" parent="1">
          <mxGeometry x="130" y="970" width="80" height="30" as="geometry" />
        </mxCell>
      </root>
    </mxGraphModel>
  </diagram>
</mxfile>
